<svg height="512" viewBox="0 0 512 512" width="512" xmlns="http://www.w3.org/2000/svg"><g id="Barrier"><path d="m463 392h-295v-64h256a8 8 0 0 0 8-8v-40a8 8 0 0 0 -8-8h-256a40.04 40.04 0 0 0 -40-40v-16c0-.227-.015-.451-.034-.673a48 48 0 1 0 -15.932 0c-.019.222-.034.446-.034.673v16a40.04 40.04 0 0 0 -40 40v120h-56a8 8 0 0 0 0 16h447a8 8 0 0 0 0-16zm-375-224a32 32 0 1 1 32 32 32.036 32.036 0 0 1 -32-32zm52.686 144h-20.686v-24h44.686zm46.628-24h25.372l-24 24h-25.372zm145.372 24h-25.372l24-24h25.372zm46.628-24h25.372l-24 24h-25.372zm-94.628 24h-25.372l24-24h25.372zm-48 0h-25.372l24-24h25.372zm166.628 0 12.686-12.686v12.686zm-315.314 80v-120a24.032 24.032 0 0 1 24-24h16a24.032 24.032 0 0 1 24 24h-40a8 8 0 0 0 -8 8v40a8 8 0 0 0 8 8h40v64z"/><path d="m496 392h-8a8 8 0 0 0 0 16h8a8 8 0 0 0 0-16z"/><path d="m144 168a24 24 0 1 0 -24 24 24.027 24.027 0 0 0 24-24zm-32 0a8 8 0 1 1 8 8 8.009 8.009 0 0 1 -8-8z"/></g></svg>