<?xml version="1.0" encoding="utf-8"?>
<!-- Generator: Adobe Illustrator 22.0.0, SVG Export Plug-In . SVG Version: 6.00 Build 0)  -->
<svg version="1.1" id="Layer_1" xmlns="http://www.w3.org/2000/svg" xmlns:xlink="http://www.w3.org/1999/xlink" x="0px" y="0px"
	 viewBox="0 0 590 576" style="enable-background:new 0 0 590 576;" xml:space="preserve">
<style type="text/css">
	.st0{fill:#FFFFFF;}
</style>
<g id="Barrier">
	<path class="st0" d="M541.2,448.3H190.3v-76.1h304.5c5.2,0,9.5-4.3,9.5-9.5V315c0-5.2-4.3-9.5-9.5-9.5H190.3
		c0-26.3-21.3-47.6-47.6-47.6v-19c0-0.2,0-0.6,0-0.8c31-5.2,52.1-34.7,46.9-65.8c-5.2-31-34.7-52.1-65.8-46.9
		c-31,5.2-52.1,34.7-46.9,65.9c4,24,22.8,42.8,46.9,46.9c0,0.2,0,0.5,0,0.8v19c-26.3,0-47.6,21.3-47.6,47.6v142.7H9.5
		c-5.2,0-9.5,4.3-9.5,9.5c0,5.2,4.3,9.5,9.5,9.5h531.7c5.2,0,9.5-4.3,9.5-9.5C550.7,452.7,546.5,448.3,541.2,448.3z M95.2,181.8
		c0-21.1,17-38.1,38.1-38.1s38.1,17,38.1,38.1s-17,38.1-38.1,38.1S95.2,202.9,95.2,181.8z M157.8,353.1h-24.6v-28.5h53.2
		L157.8,353.1z M213.3,324.5h30.2l-28.5,28.5h-30.2L213.3,324.5z M386.2,353.1H356l28.5-28.5h30.2L386.2,353.1z M441.7,324.5h30.2
		l-28.5,28.5h-30.2L441.7,324.5z M329.1,353.1h-30.2l28.5-28.5h30.2L329.1,353.1z M272,353.1h-30.2l28.5-28.5h30.2L272,353.1z
		 M470.2,353.1l15.1-15.1v15.1H470.2z M95.2,448.3V305.5c0-15.7,12.8-28.5,28.5-28.5h19c15.7,0,28.5,12.8,28.5,28.5h-47.6
		c-5.2,0-9.5,4.3-9.5,9.5v47.6c0,5.2,4.3,9.5,9.5,9.5h47.6v76.1H95.2z"/>
	<path class="st0" d="M580.5,448.3H571c-5.2,0-9.5,4.3-9.5,9.5c0,5.2,4.3,9.5,9.5,9.5h9.5c5.2,0,9.5-4.3,9.5-9.5
		C590,452.5,585.7,448.3,580.5,448.3z"/>
	<path class="st0" d="M161.8,181.8c0-15.8-12.7-28.5-28.5-28.5s-28.5,12.7-28.5,28.5s12.7,28.5,28.5,28.5
		C148.9,210.4,161.8,197.5,161.8,181.8z M123.7,181.8c0-5.2,4.3-9.5,9.5-9.5c5.2,0,9.5,4.3,9.5,9.5c0,5.2-4.3,9.5-9.5,9.5
		C128,191.3,123.7,187,123.7,181.8z"/>
</g>
</svg>
