<?xml version="1.0" encoding="utf-8"?>
<!-- Generator: Adobe Illustrator 22.0.0, SVG Export Plug-In . SVG Version: 6.00 Build 0)  -->
<svg version="1.1" id="Layer_1" xmlns="http://www.w3.org/2000/svg" xmlns:xlink="http://www.w3.org/1999/xlink" x="0px" y="0px"
	 viewBox="0 0 511 512" style="enable-background:new 0 0 511 512;" xml:space="preserve">
<style type="text/css">
	.st0{fill:#FFFFFF;}
</style>
<path class="st0" d="M398.8,132.1l-40.1-25.7c-5.8-3.7-13.2-4-19.3-0.7s-9.9,9.7-9.9,16.6v51.4c0,6.9,3.8,13.3,9.9,16.6
	c2.8,1.6,6,2.3,9.1,2.3c3.6,0,7.1-1,10.2-3l40.1-25.7c5.5-3.5,8.7-9.5,8.7-15.9C407.5,141.5,404.2,135.6,398.8,132.1z M349.5,171.8
	v-47.6l37.1,23.8L349.5,171.8z"/>
<path class="st0" d="M124.5,60c0-5.5-4.5-10-10-10h-64c-5.5,0-10,4.5-10,10v64c0,5.5,4.5,10,10,10h64c5.5,0,10-4.5,10-10V60z
	 M104.5,114h-44V70h44V114z"/>
<path class="st0" d="M162.5,134h64c5.5,0,10-4.5,10-10V60c0-5.5-4.5-10-10-10h-64c-5.5,0-10,4.5-10,10v64
	C152.5,129.5,157,134,162.5,134z M172.5,70h44v44h-44V70z"/>
<path class="st0" d="M114.5,162h-64c-5.5,0-10,4.5-10,10v64c0,5.5,4.5,10,10,10h64c5.5,0,10-4.5,10-10v-64
	C124.5,166.5,120,162,114.5,162z M104.5,226h-44v-44h44V226z"/>
<path class="st0" d="M462.5,246c5.5,0,10-4.5,10-10V60c0-5.5-4.5-10-10-10h-188c-5.5,0-10,4.5-10,10v176c0,5.5,4.5,10,10,10H462.5z
	 M284.5,70h168v156h-168V70z"/>
<path class="st0" d="M462.5-1H204c-5.5,0-10,4.5-10,10s4.5,10,10,10h258.5c16.5,0,30,13.5,30,30v198c0,16.5-13.5,30-30,30H229.9
	v-31.6c3.8-1.4,6.6-5.1,6.6-9.4v-64c0-5.5-4.5-10-10-10h-64c-5.5,0-10,4.5-10,10v64c0,4.8,3.4,8.8,7.9,9.8V277H50.5
	c-16.5,0-30-13.5-30-30V49c0-16.5,13.5-30,30-30h68.3c5.5,0,10-4.5,10-10s-4.5-10-10-10H50.5c-27.6,0-50,22.4-50,50v198
	c0,27.6,22.4,50,50,50h109.9v84.1l-11.3-18.6c-10.3-16.8-31.7-22.3-48.7-12.4C84.1,359.4,77.8,380,86,396.9l53.1,108.5
	c1.7,3.5,5.3,5.6,9,5.6c1.5,0,3-0.3,4.4-1c5-2.4,7-8.4,4.6-13.4l-53.1-108.4c-3.6-7.5-0.8-16.6,6.4-20.8c7.6-4.4,17.1-1.9,21.7,5.5
	l29.9,49c2.3,3.8,6.9,5.6,11.2,4.4c4.3-1.2,7.3-5.1,7.3-9.6V236c0-8.1,6.6-14.8,14.8-14.8c8.1,0,14.8,6.6,14.8,14.8v161
	c0,5.5,4.5,10,10,10s10-4.5,10-10v-60c0-8.1,6.6-14.8,14.8-14.8s14.8,6.6,14.8,14.8v60c0,5.5,4.5,10,10,10s10-4.5,10-10v-60
	c0-8.1,6.6-14.8,14.8-14.8c8.1,0,14.8,6.6,14.8,14.8v60c0,5.5,4.5,10,10,10s10-4.5,10-10v-40.3c0-8.1,6.6-14.8,14.8-14.8
	s14.8,6.6,14.8,14.8v103.8c0,5.5,4.5,10,10,10c5.5,0,10-4.5,10-10V356.7c0-19.2-15.6-34.8-34.8-34.8c-6,0-11.6,1.5-16.5,4.2
	c-4.6-13.9-17.6-23.9-33-23.9c-9.7,0-18.5,4-24.8,10.4c-6.3-6.4-15.1-10.4-24.8-10.4c-5.3,0-10.3,1.2-14.8,3.3V297h232.6
	c27.6,0,50-22.4,50-50V49C512.5,21.4,490.1-1,462.5-1z M195.2,201.2c-8.7,0-16.6,3.2-22.7,8.5V182h44v26.6
	C210.6,204,203.2,201.2,195.2,201.2z"/>
<path class="st0" d="M162.5,19c2.6,0,5.2-1.1,7.1-2.9s2.9-4.4,2.9-7.1s-1.1-5.2-2.9-7.1c-1.9-1.9-4.4-2.9-7.1-2.9s-5.2,1.1-7.1,2.9
	c-1.9,1.9-2.9,4.4-2.9,7.1s1.1,5.2,2.9,7.1S159.9,19,162.5,19z"/>
<path class="st0" d="M368.5,491c-2.6,0-5.2,1.1-7.1,2.9c-1.9,1.9-2.9,4.4-2.9,7.1c0,2.6,1.1,5.2,2.9,7.1s4.4,2.9,7.1,2.9
	c2.6,0,5.2-1.1,7.1-2.9c1.9-1.9,2.9-4.4,2.9-7.1c0-2.6-1.1-5.2-2.9-7.1C373.7,492.1,371.2,491,368.5,491z"/>
</svg>
