<svg viewBox="0 1 511 511.99999" xmlns="http://www.w3.org/2000/svg"><path d="m398.777344 133.050781-40.113282-25.710937c-5.835937-3.738282-13.234374-3.996094-19.3125-.671875-6.078124 3.324219-9.851562 9.691406-9.851562 16.617187v51.425782c0 6.929687 3.773438 13.296874 9.851562 16.621093 2.839844 1.550781 5.96875 2.324219 9.089844 2.324219 3.558594 0 7.113282-1.003906 10.222656-2.996094l40.113282-25.714844c5.460937-3.5 8.722656-9.460937 8.722656-15.945312 0-6.488281-3.261719-12.449219-8.722656-15.949219zm-49.277344 39.726563v-47.558594l37.09375 23.78125zm0 0"/><path d="m124.5 61c0-5.523438-4.476562-10-10-10h-64c-5.523438 0-10 4.476562-10 10v64c0 5.523438 4.476562 10 10 10h64c5.523438 0 10-4.476562 10-10zm-20 54h-44v-44h44zm0 0"/><path d="m162.5 135h64c5.523438 0 10-4.476562 10-10v-64c0-5.523438-4.476562-10-10-10h-64c-5.523438 0-10 4.476562-10 10v64c0 5.523438 4.476562 10 10 10zm10-64h44v44h-44zm0 0"/><path d="m114.5 163h-64c-5.523438 0-10 4.476562-10 10v64c0 5.519531 4.476562 10 10 10h64c5.523438 0 10-4.480469 10-10v-64c0-5.523438-4.476562-10-10-10zm-10 64h-44v-44h44zm0 0"/><path d="m462.5 247c5.519531 0 10-4.480469 10-10v-176c0-5.523438-4.480469-10-10-10h-188c-5.523438 0-10 4.476562-10 10v176c0 5.519531 4.476562 10 10 10zm-178-176h168v156h-168zm0 0"/><path d="m462.5 0h-258.5c-5.523438 0-10 4.476562-10 10s4.476562 10 10 10h258.5c16.539062 0 30 13.457031 30 30v198c0 16.539062-13.460938 30-30 30h-232.554688v-31.621094c3.820313-1.40625 6.554688-5.070312 6.554688-9.378906v-64c0-5.523438-4.476562-10-10-10h-64c-5.523438 0-10 4.476562-10 10v64c0 4.808594 3.394531 8.820312 7.917969 9.777344v31.222656h-109.917969c-16.542969 0-30-13.460938-30-30v-198c0-16.542969 13.457031-30 30-30h68.332031c5.523438 0 10-4.476562 10-10s-4.476562-10-10-10h-68.332031c-27.570312 0-50 22.429688-50 50v198c0 27.570312 22.429688 50 50 50h109.917969v84.113281l-11.339844-18.605469c-10.257813-16.832031-31.660156-22.292968-48.730469-12.441406-16.234375 9.375-22.566406 29.941406-14.390625 46.871094l53.101563 108.457031c1.734375 3.546875 5.289062 5.605469 8.988281 5.605469 1.476563 0 2.976563-.328125 4.390625-1.019531 4.960938-2.429688 7.011719-8.417969 4.582031-13.378907l-53.074219-108.410156c-3.625-7.5-.8125-16.640625 6.402344-20.804687 7.585938-4.378907 17.09375-1.949219 21.652344 5.527343l29.878906 49.023438c2.332032 3.828125 6.929688 5.636719 11.242188 4.425781 4.316406-1.214843 7.296875-5.148437 7.296875-9.628906v-180.734375c0-8.140625 6.625-14.765625 14.761719-14.765625 8.140624 0 14.765624 6.625 14.765624 14.765625v160.996094c0 5.523437 4.476563 10 10 10 5.523438 0 10-4.476563 10-10v-60.007813c0-8.140625 6.621094-14.765625 14.761719-14.765625s14.761719 6.625 14.761719 14.765625v60.007813c0 5.523437 4.476562 10 10 10s10-4.476563 10-10v-60.007813c0-8.140625 6.625-14.765625 14.765625-14.765625 8.136719 0 14.761719 6.625 14.761719 14.765625v60.007813c0 5.519531 4.476562 10 10 10 5.523437 0 10-4.480469 10-10v-40.3125c0-8.140625 6.621094-14.765625 14.761718-14.765625 8.140626 0 14.765626 6.625 14.765626 14.765625v103.816406c0 5.519531 4.476562 10 10 10 5.519531 0 10-4.480469 10-10v-103.816406c0-19.167969-15.597657-34.765625-34.765626-34.765625-5.972656 0-11.601562 1.519531-16.515624 4.183593-4.582032-13.851562-17.640626-23.878906-33.007813-23.878906-9.6875 0-18.453125 3.984375-24.765625 10.398438-6.308594-6.414063-15.078125-10.398438-24.761719-10.398438-5.277343 0-10.277343 1.1875-14.761719 3.300782v-8.523438h232.554688c27.566406 0 49.996094-22.429688 49.996094-50v-198c0-27.570312-22.429688-50-49.996094-50zm-267.320312 202.234375c-8.660157 0-16.585938 3.195313-22.679688 8.453125v-27.6875h44v26.570312c-5.894531-4.589843-13.289062-7.335937-21.320312-7.335937zm0 0"/><path d="m162.5 20c2.628906 0 5.210938-1.070312 7.070312-2.929688 1.859376-1.859374 2.929688-4.441406 2.929688-7.070312s-1.070312-5.210938-2.929688-7.070312c-1.859374-1.859376-4.441406-2.929688-7.070312-2.929688s-5.210938 1.070312-7.070312 2.929688c-1.859376 1.859374-2.929688 4.441406-2.929688 7.070312s1.070312 5.210938 2.929688 7.070312c1.859374 1.859376 4.441406 2.929688 7.070312 2.929688zm0 0"/><path d="m368.519531 492c-2.632812 0-5.210937 1.066406-7.070312 2.929688-1.859375 1.859374-2.929688 4.4375-2.929688 7.066406 0 2.632812 1.070313 5.210937 2.929688 7.070312s4.4375 2.929688 7.070312 2.929688c2.640625 0 5.210938-1.066406 7.078125-2.929688 1.859375-1.859375 2.921875-4.4375 2.921875-7.070312 0-2.628906-1.0625-5.207032-2.921875-7.066406-1.867187-1.863282-4.4375-2.929688-7.078125-2.929688zm0 0"/></svg>