<?xml version="1.0" encoding="utf-8"?>
<!-- Generator: Adobe Illustrator 22.0.0, SVG Export Plug-In . SVG Version: 6.00 Build 0)  -->
<svg version="1.1" id="Capa_1" xmlns="http://www.w3.org/2000/svg" xmlns:xlink="http://www.w3.org/1999/xlink" x="0px" y="0px"
	 viewBox="0 0 512 512" style="enable-background:new 0 0 512 512;" xml:space="preserve">
<style type="text/css">
	.st0{fill:#FFFFFF;}
</style>
<g>
	<g>
		<path class="st0" d="M196,60c-5.5,0-10,4.5-10,10s4.5,10,10,10s10-4.5,10-10S201.5,60,196,60z"/>
	</g>
</g>
<g>
	<g>
		<path class="st0" d="M256,140c-5.5,0-10-4.5-10-10c0-5.5,4.5-10,10-10c3.5,0,7.3,1.8,10.8,5.2c4,3.8,10.3,3.7,14.1-0.2
			c3.8-4,3.7-10.3-0.2-14.1c-5.1-4.9-10.2-7.7-14.7-9.2V90c0-5.5-4.5-10-10-10s-10,4.5-10,10v11.7c-11.6,4.1-20,15.2-20,28.3
			c0,16.5,13.5,30,30,30c5.5,0,10,4.5,10,10s-4.5,10-10,10c-4.3,0-8.9-2.7-13-7.6c-3.6-4.2-9.9-4.8-14.1-1.2
			c-4.2,3.6-4.8,9.9-1.2,14.1c5.3,6.4,11.6,10.8,18.3,13V210c0,5.5,4.5,10,10,10s10-4.5,10-10v-11.7c11.6-4.1,20-15.2,20-28.3
			C286,153.5,272.5,140,256,140z"/>
	</g>
</g>
<g>
	<g>
		<path class="st0" d="M472,146c-22.1,0-40,17.9-40,40v71.3c-13.3-3.4-27.9,0.1-38.3,10.4l-67.1,67.1c-9.4,9.4-14.7,22-14.7,35.4
			V429h-10c-5.5,0-10,4.5-10,10v63c0,5.5,4.5,10,10,10h140c5.5,0,10-4.5,10-10v-63c0-5.5-4.5-10-10-10h-10v-4.7
			c0-2.6,1.1-5.2,2.9-7.1l62.4-62.4c9.4-9.4,14.6-22,14.6-35.4V186C512,163.9,494.1,146,472,146z M432,492H312v-43h120V492z
			 M492,319.4c0,8-3.1,15.5-8.8,21.2l-62.4,62.4c-5.6,5.6-8.8,13.3-8.8,21.2v4.7h-80v-58.9c0-8,3.1-15.6,8.8-21.2l67.1-67.1
			c7.5-7.5,19.6-7.8,27.5-0.8c0.1,0,0.1,0.1,0.2,0.1c0.2,0.2,0.4,0.4,0.7,0.6c3.8,3.8,5.9,8.8,5.9,14.1s-2.1,10.4-5.9,14.1
			l-49.7,49.7c-3.9,3.9-3.9,10.2,0,14.1c3.9,3.9,10.2,3.9,14.1,0l49.7-49.7c7.6-7.6,11.7-17.6,11.7-28.3c0-9.8-3.5-19.1-10-26.4V186
			c0-11,9-20,20-20s20,9,20,20V319.4z"/>
	</g>
</g>
<g>
	<g>
		<path class="st0" d="M210,429h-10v-58.9c0-13.4-5.2-25.9-14.6-35.4l-67.1-67.1c-10.3-10.3-25-13.9-38.3-10.4V186
			c0-22.1-17.9-40-40-40S0,163.9,0,186v133.4c0,13.4,5.2,25.9,14.6,35.4l62.4,62.4c1.9,1.9,2.9,4.4,2.9,7.1v4.7H70
			c-5.5,0-10,4.5-10,10v63c0,5.5,4.5,10,10,10h140c5.5,0,10-4.5,10-10v-63C220,433.5,215.5,429,210,429z M28.8,340.6
			c-5.7-5.7-8.8-13.2-8.8-21.2V186c0-11,9-20,20-20s20,9,20,20v83.6c-6.5,7.3-10,16.6-10,26.4c0,10.7,4.2,20.7,11.7,28.3l50,50
			c3.9,3.9,10.2,3.9,14.1,0c3.9-3.9,3.9-10.2,0-14.1l-50-50c-3.8-3.8-5.9-8.8-5.9-14.1s2.1-10.4,5.9-14.1c0.2-0.2,0.4-0.4,0.7-0.6
			l0.2-0.1c7.9-7.1,19.9-6.7,27.4,0.8l67.1,67.1c5.7,5.7,8.8,13.2,8.8,21.2V429h-80v-4.7c0-7.9-3.2-15.6-8.8-21.2L28.8,340.6z
			 M200,492H80v-43h120V492z"/>
	</g>
</g>
<g>
	<g>
		<path class="st0" d="M256,0c-82.7,0-150,67.3-150,150s67.3,150,150,150s150-67.3,150-150S338.7,0,256,0z M256,280
			c-71.7,0-130-58.3-130-130S184.3,20,256,20s130,58.3,130,130S327.7,280,256,280z"/>
	</g>
</g>
<g>
	<g>
		<path class="st0" d="M325.1,64.4c-26-21-60.1-28.9-93.4-21.7c-5.4,1.2-8.8,6.5-7.7,11.9c1.2,5.4,6.5,8.8,11.9,7.7
			c27.4-5.9,55.3,0.6,76.6,17.8C333.8,97.1,346,122.7,346,150c0,49.6-40.4,90-90,90s-90-40.4-90-90c0-14.8,3.7-29.5,10.6-42.5
			c2.6-4.9,0.8-10.9-4.1-13.5c-4.9-2.6-10.9-0.8-13.5,4.1c-8.5,15.9-13,33.8-13,51.9c0,60.7,49.3,110,110,110s110-49.3,110-110
			C366,116.6,351.1,85.4,325.1,64.4z"/>
	</g>
</g>
</svg>
