<?xml version="1.0" encoding="utf-8"?>
<!-- Generator: Adobe Illustrator 22.0.0, SVG Export Plug-In . SVG Version: 6.00 Build 0)  -->
<svg version="1.1" id="Layer_1" xmlns="http://www.w3.org/2000/svg" xmlns:xlink="http://www.w3.org/1999/xlink" x="0px" y="0px"
	 viewBox="0 0 511 511" style="enable-background:new 0 0 511 511;" xml:space="preserve">
<style type="text/css">
	.st0{fill:#FFFFFF;}
	.st1{font-family:'MyriadPro-Bold';}
	.st2{font-size:100px;}
</style>
<path d="M504.9,177.9L128.8,38.5c-4.8-1.8-10.2,0.7-11.9,5.5c0,0,0,0,0,0L75.2,157.3c-1.8,4.8,0.7,10.2,5.5,11.9h0l43.6,16
	l-9.6,26.2c-1.8,4.8,0.7,10.1,5.5,11.9l87.2,32l-6.4,17.4c-5.8,15.6-0.4,33.2,13.2,42.8v47.4h-125c-6.1-13.8-18.4-23.9-33.2-26.9
	v-19.5c0-5.1-4.2-9.3-9.3-9.3H9.3c-5.1,0-9.3,4.2-9.3,9.3v148.6c0,5.1,4.2,9.3,9.3,9.3h37.5c5.1,0,9.3-4.2,9.3-9.3v-19.5
	c14.8-3.1,27.2-13.1,33.2-26.9h125v9.3c0,15.4,12.5,27.9,27.9,27.9s27.9-12.5,27.9-27.9V325.2c8.4-4.2,15-11.5,18.2-20.3l6.4-17.4
	l78.5,28.8c1,0.4,2.1,0.6,3.2,0.6c3.9,0,7.4-2.4,8.7-6.1l3.5-9.5c30.2,5.7,59.3-14.2,65-44.4c2.1-11.2,0.7-22.7-3.9-33.1l56.3-28.9
	c4.6-2.3,6.4-7.9,4-12.5C508.9,180.2,507.1,178.6,504.9,177.9L504.9,177.9z M232.8,324.1l7.7,2.8c3.5,1.3,7.2,2,10.9,2.1v34h-18.6
	V324.1z M37.5,456H18.6V325.9h18.9V456z M74.6,400.2c0,11.8-7.5,22.3-18.6,26.3v-71.1c11.1,3.9,18.6,14.5,18.6,26.3V400.2z
	 M93.5,381.7h157.9v18.6H93.5V381.7z M242.1,437.4c-5.1,0-9.3-4.2-9.3-9.3v-9.3h18.6v9.3C251.4,433.2,247.3,437.4,242.1,437.4z
	 M277.2,281l-6.4,17.4c-3.5,9.6-14.2,14.6-23.8,11l-17.5-6.4c-9.6-3.5-14.6-14.2-11-23.8c0,0,0,0,0,0l6.4-17.4l47.1,17.3L277.2,281z
	 M370.8,295.6l-235.5-86.5l6.4-17.4L281.3,243c3.3,1.2,7,0.4,9.6-2l26.1-24.5l73.1,26.8L370.8,295.6z M433.6,259.3
	c-5.9,15.9-21.7,25.8-38.6,24.2l14.4-39.1l23.4-12.1C436.5,240.9,436.8,250.5,433.6,259.3z M402.2,227.2c-0.5,0-1,0.1-1.5,0.3
	L318,197c-3.3-1.2-7-0.5-9.6,1.9l-26.1,24.5L95.8,155.1L131,59.2l347.6,128.8L402.2,227.2z"/>
<path d="M172,163.2l6.4-17.4l17.4,6.4l-6.4,17.4L172,163.2z"/>
<path d="M206.9,176l6.4-17.4l17.4,6.4l-6.4,17.4L206.9,176z"/>
<path d="M241.8,188.9l6.4-17.4l17.4,6.4l-6.4,17.4L241.8,188.9z"/>
<circle cx="370" cy="412.9" r="87"/>
<text transform="matrix(1 0 0 1 342.2578 443.2632)" class="st0 st1 st2">6</text>
</svg>
