<?xml version="1.0" encoding="utf-8"?>
<!-- Generator: Adobe Illustrator 22.0.0, SVG Export Plug-In . SVG Version: 6.00 Build 0)  -->
<svg version="1.1" id="Layer_1" xmlns="http://www.w3.org/2000/svg" xmlns:xlink="http://www.w3.org/1999/xlink" x="0px" y="0px"
	 viewBox="0 0 512 512" style="enable-background:new 0 0 512 512;" xml:space="preserve">
<style type="text/css">
	.st0{fill:#FFFFFF;}
	.st1{font-family:'MyriadPro-Bold';}
	.st2{font-size:72px;}
</style>
<g>
	<path d="M505,67.6H7c-3.9,0-7,3.1-7,7v55.2c0,1.5,0.5,2.9,1.3,4.1l40,55.2c1.3,1.8,3.4,2.9,5.7,2.9h15.7v59.2
		c0.5,106.7,87.4,192.9,194.1,192.4c106-0.5,191.9-86.3,192.4-192.4V192H465c2.2,0,4.3-1.1,5.7-2.9l40-55.2c0.9-1.2,1.3-2.6,1.3-4.1
		V74.6C512,70.8,508.9,67.6,505,67.6C505,67.6,505,67.6,505,67.6z M435.2,81.6v52.5H76.7V81.6L435.2,81.6z M185.7,416V307.2
		c0-38.8,31.5-70.3,70.3-70.3c38.8,0,70.3,31.5,70.3,70.3V416C281.4,435.2,230.6,435.2,185.7,416z M435.3,251.1
		c-0.1,66.2-36.5,127-94.9,158.1V307.2c0-46.6-37.8-84.3-84.3-84.3s-84.3,37.8-84.3,84.3l0,0v102.1c-58.4-31.2-94.9-91.9-94.9-158.1
		V192h358.5L435.3,251.1z M498,127.5L461.4,178H50.6L14,127.5V81.6h48.7v59.5c0,3.9,3.1,7,7,7h372.5c3.9,0,7-3.1,7-7V81.6H498
		L498,127.5z"/>
	<path d="M256,262.8c-24.5,0-44.3,19.8-44.3,44.3s19.8,44.3,44.3,44.3s44.3-19.8,44.3-44.3l0,0C300.3,282.7,280.5,262.9,256,262.8z
		 M256,337.5c-16.8,0-30.3-13.6-30.3-30.3s13.6-30.3,30.3-30.3s30.3,13.6,30.3,30.3l0,0C286.3,323.9,272.7,337.5,256,337.5z"/>
	<path d="M129,114.9h254c3.9,0,7-3.1,7-7s-3.1-7-7-7H129c-3.9,0-7,3.1-7,7S125.1,114.9,129,114.9z"/>
</g>
<circle cx="440.9" cy="441.1" r="69.9"/>
<text transform="matrix(1 0 0 1 420.9658 462.187)" class="st0 st1 st2">8</text>
</svg>
