<?xml version="1.0"?>
<svg xmlns="http://www.w3.org/2000/svg" width="512" height="512" viewBox="0 0 128 128"><g><path d="M126.25,16.908H1.75A1.75,1.75,0,0,0,0,18.658V32.45a1.757,1.757,0,0,0,.333,1.028L10.341,47.269a1.749,1.749,0,0,0,1.417.722h3.929V62.78a48.313,48.313,0,0,0,96.625,0V47.991h3.93a1.747,1.747,0,0,0,1.416-.722l10.008-13.791A1.751,1.751,0,0,0,128,32.45V18.658A1.749,1.749,0,0,0,126.25,16.908Zm-17.438,3.5V33.533H19.187V20.411ZM46.417,103.994v-27.2a17.583,17.583,0,0,1,35.166,0v27.2a44.762,44.762,0,0,1-35.166,0Zm62.4-41.214a44.849,44.849,0,0,1-23.729,39.529V76.791a21.083,21.083,0,0,0-42.166,0v25.518A44.851,44.851,0,0,1,19.187,62.78V47.991h89.625Zm15.688-30.9-9.15,12.609H12.65L3.5,31.882V20.408H15.687V35.283a1.751,1.751,0,0,0,1.75,1.75h93.125a1.75,1.75,0,0,0,1.75-1.75V20.408H124.5Z"/><path d="M64,65.708A11.083,11.083,0,1,0,75.083,76.791,11.1,11.1,0,0,0,64,65.708Zm0,18.666a7.583,7.583,0,1,1,7.583-7.583A7.591,7.591,0,0,1,64,84.374Z"/><path d="M32.25,28.722h63.5a1.75,1.75,0,0,0,0-3.5H32.25a1.75,1.75,0,0,0,0,3.5Z"/></g></svg>
