<?xml version="1.0" encoding="utf-8"?>
<!-- Generator: Adobe Illustrator 22.0.0, SVG Export Plug-In . SVG Version: 6.00 Build 0)  -->
<svg version="1.1" id="Layer_1" xmlns="http://www.w3.org/2000/svg" xmlns:xlink="http://www.w3.org/1999/xlink" x="0px" y="0px"
	 viewBox="0 0 512 512" style="enable-background:new 0 0 512 512;" xml:space="preserve">
<g>
	<g id="Solar_plant">
		<path d="M84,81.5c-25.3,0-45.8,20.5-45.8,45.8c0,25.3,20.5,45.8,45.8,45.8c25.3,0,45.8-20.5,45.8-45.8S109.3,81.5,84,81.5z
			 M84,160.1c-18.1,0-32.7-14.7-32.7-32.7c0-18.1,14.7-32.7,32.7-32.7c18.1,0,32.7,14.7,32.7,32.7S102,160.1,84,160.1z"/>
		<path d="M77.4,55.3h13.1v13.1H77.4V55.3z"/>
		<path d="M121,81.1l9.3-9.3l9.3,9.3l-9.3,9.3L121,81.1z"/>
		<path d="M142.9,120.8H156v13.1h-13.1V120.8z"/>
		<path d="M120.9,173.6l9.3-9.3l9.3,9.3l-9.3,9.3L120.9,173.6z"/>
		<path d="M77.4,186.3h13.1v13.1H77.4V186.3z"/>
		<path d="M28.4,173.6l9.3-9.3l9.3,9.3l-9.3,9.3L28.4,173.6z"/>
		<path d="M12,120.8h13.1v13.1H12V120.8z"/>
		<path d="M28.4,81.1l9.3-9.3l9.3,9.3l-9.3,9.3L28.4,81.1z"/>
	</g>
	<path d="M158.8,238.2c2.3-2.3,2.3-6,0-8.3l-16.7-16.7c-2.3-2.3-6-2.3-8.3,0L33.7,313.3c-2.3,2.3-2.3,6,0,8.3l16.7,16.7
		c2.3,2.3,6,2.3,8.3,0l31.6-31.6v28.1h-5.9c-3.3,0-5.9,2.6-5.9,5.9v41.3c0,3.3,2.6,5.9,5.9,5.9h41.3c3.3,0,5.9-2.6,5.9-5.9v-41.3
		c0-3.3-2.6-5.9-5.9-5.9h-5.9v-57.5L158.8,238.2z M119.9,376H90.4v-29.5h29.5V376z M102.2,334.7v-39.9l5.9-5.9v45.7H102.2z
		 M54.6,325.8l-8.3-8.3l91.7-91.7l8.3,8.3L54.6,325.8z"/>
	<path d="M495.9,243.3L225.3,143c-3.5-1.3-7.3,0.5-8.6,4l0,0l-30,81.5c-1.3,3.5,0.5,7.3,4,8.6l0,0l31.4,11.5l-6.9,18.9
		c-1.3,3.5,0.5,7.3,4,8.6l62.7,23l-4.6,12.5c-4.2,11.2-0.3,23.9,9.5,30.8v34.1h-89.9c-4.4-9.9-13.2-17.2-23.9-19.4v-14
		c0-3.7-3-6.7-6.7-6.7h-26.9c-3.7,0-6.7,3-6.7,6.7V450c0,3.7,3,6.7,6.7,6.7h27c3.7,0,6.7-3,6.7-6.7v-14c10.6-2.2,19.6-9.4,23.9-19.4
		h89.9v6.7c0,11.1,9,20.1,20.1,20.1s20.1-9,20.1-20.1v-74c6-3,10.8-8.3,13.1-14.6l4.6-12.5l56.5,20.7c0.7,0.3,1.5,0.4,2.3,0.4
		c2.8,0,5.3-1.7,6.3-4.4l2.5-6.8c21.7,4.1,42.7-10.2,46.8-31.9c1.5-8.1,0.5-16.3-2.8-23.8l40.5-20.8c3.3-1.7,4.6-5.7,2.9-9
		C498.8,245,497.5,243.8,495.9,243.3L495.9,243.3z M300.1,348.5l5.5,2c2.5,0.9,5.2,1.4,7.8,1.5v24.5h-13.4V348.5L300.1,348.5z
		 M159.6,443.4H146v-93.6h13.6V443.4z M186.3,403.3c0,8.5-5.4,16-13.4,18.9V371c8,2.8,13.4,10.4,13.4,18.9V403.3z M199.9,390h113.6
		v13.4H199.9V390z M306.8,430c-3.7,0-6.7-3-6.7-6.7v-6.7h13.4v6.7C313.5,427,310.5,430,306.8,430z M332.1,317.5l-4.6,12.5
		c-2.5,6.9-10.2,10.5-17.1,7.9l-12.6-4.6c-6.9-2.5-10.5-10.2-7.9-17.1l0,0l4.6-12.5l33.9,12.4L332.1,317.5z M399.4,328L230,265.8
		l4.6-12.5L335,290.2c2.4,0.9,5,0.3,6.9-1.4l18.8-17.6l52.6,19.3L399.4,328z M444.6,301.9c-4.2,11.4-15.6,18.6-27.8,17.4l10.4-28.1
		l16.8-8.7C446.7,288.6,446.9,295.6,444.6,301.9z M422,278.8c-0.4,0-0.7,0.1-1.1,0.2l-59.5-21.9c-2.4-0.9-5-0.4-6.9,1.4l-18.8,17.6
		l-134.2-49.1l25.3-69L477,250.6L422,278.8z"/>
</g>
</svg>
